<?xml version="1.0" encoding="UTF-8"?><svg id="Layer_1" xmlns="http://www.w3.org/2000/svg" viewBox="0 0 537.87 522.21"><ellipse cx="268.94" cy="261.11" rx="268.94" ry="261.11" fill="#070710"/><g opacity=".86"><path d="M467.34,389.7c-24.18,11.87-61.12,25.06-80.9,40.45-5.28-29.46-14.95-63.75-26.38-97.61-29.46,26.82-64.19,47.49-123.55,58.48-46.61,8.79-69.47,11.43-90.13,17.15-9.23,3.96-20.67,9.67-33.86,23.74-10.11-26.82-26.38-47.93-40.01-68.59,15.39-23.74,21.1-43.97,32.54-72.99,5.72,16.71,14.07,21.54,23.3,32.1h.88c22.42-44.41,31.66-93.21,43.97-146.41,4.84-22.42,10.99-55.4,12.75-73.43,0-10.55-11.87-21.54-21.98-26.38,25.5-8.35,45.29-12.75,70.35-30.78,18.91,17.59,43.97,36.93,76.06,47.93-13.63,6.16-27.7,11.87-31.66,21.1-7.91,20.67-15.83,52.32-21.54,73.87-14.51,59.36-35.61,102.89-95.41,134.54,61.12,1.32,138.5.44,191.7-8.35-15.39-41.77-33.42-79.58-50.12-99.37,24.62-8.35,57.6-24.62,77.38-39.13,36.93,65.07,60.68,154.77,86.62,213.69Z" fill="#fff"/></g><path d="M143.01,303.52c19.64-76.82,85.64-195.18,36.28-226.24,1.27-4.41,13.95-.47,29.27-6.81,15.54-6.43,16.7-16.36,25.19-15.67,10.15.82,9.79,15.13,25.87,26.56,15.23,10.83,30.54,8.64,31.04,14.24.4,4.47-9.33,6.09-18.1,14.36-11.77,11.09-12.82,25.65-15.66,41.53,0,0-1.83,10.25-18.38,60.6-28.25,88.9-155.23,119.64-36.09,123.92,27.76,1.51,34.7-.18,117.11-8.17,21.19-2.05,32.46-3.08,37.45-11.57,15.75-23.79-43.91-85.65-38.13-94.64,3.93-8.1,19.41-1.04,37.45-12.94,15.11-9.97,16.02-22.22,21.79-21.79,11.64.88,5.63,51.08,26.55,104.85,24.78,71.58,87.8,96.24,18.39,103.48-39.29,22.48-29.53,37.87-34.72-11.57-6.9-17.53-16-33.45-21.1-54.47-10.89-8.73-36.19,25.19-79.66,42.21-63.82,28.22-142.72,7.08-170.9,49.7-4.26-.25-1.19-18.29-11.57-34.04-9.29-14.09-21.05-13.78-21.79-23.15-.68-8.67,9.27-10.34,15.66-25.87,5.85-14.2,2.26-24.29,6.81-25.87,20.03,9.15,25.98,38.89,37.26-8.65Z" fill="#0b0c16"/></svg>